<svg class="footer__svg" width="1517" height="229" fill="none" xmlns="http://www.w3.org/2000/svg"><path opacity=".7" d="M916.066 20.6077C1109.4-13.419 1427.14.849647 1518 23.7982V229.187H.995361L.995377 54.3962S78.8738 29.2999 161.62 17.9138C264.1 3.81224 299.949 9.74576 407.761 27.5905l.473.0782c241.04 39.8959 286.909 31.8228 505.9-6.7211l1.932-.3399z" fill="#292D28" fill-opacity=".52"/><path d="M1165.43 43.1602c120.14 40.443 285.1 36.1098 352.57 28.8879V236.187H0L.00001976 16.6796C105.553 35.1357 337.551 72.048 421.123 72.048c104.464 0 199.135-28.8878 316.658-55.3683C855.303-9.80084 1015.26-7.39354 1165.43 43.1602z" fill="#292D28" fill-opacity=".52"/></svg>